<?xml version="1.0" encoding="utf-8" standalone="no"?>
<!DOCTYPE svg PUBLIC "-//W3C//DTD SVG 1.1//EN"
  "http://www.w3.org/Graphics/SVG/1.1/DTD/svg11.dtd">
<svg xmlns:xlink="http://www.w3.org/1999/xlink" width="1008pt" height="360pt" viewBox="0 0 1008 360" xmlns="http://www.w3.org/2000/svg" version="1.1">
 <metadata>
  <rdf:RDF xmlns:dc="http://purl.org/dc/elements/1.1/" xmlns:cc="http://creativecommons.org/ns#" xmlns:rdf="http://www.w3.org/1999/02/22-rdf-syntax-ns#">
   <cc:Work>
    <dc:type rdf:resource="http://purl.org/dc/dcmitype/StillImage"/>
    <dc:date>2025-11-14T21:04:48.899132</dc:date>
    <dc:format>image/svg+xml</dc:format>
    <dc:creator>
     <cc:Agent>
      <dc:title>Matplotlib v3.10.0, https://matplotlib.org/</dc:title>
     </cc:Agent>
    </dc:creator>
   </cc:Work>
  </rdf:RDF>
 </metadata>
 <defs>
  <style type="text/css">*{stroke-linejoin: round; stroke-linecap: butt}</style>
 </defs>
 <g id="figure_1">
  <g id="patch_1">
   <path d="M 0 360 
L 1008 360 
L 1008 0 
L 0 0 
z
" style="fill: #ffffff"/>
  </g>
  <g id="axes_1">
   <g id="patch_2">
    <path d="M 65.849629 87.342857 
Q 104.845237 87.342857 142.275598 87.342857 
" style="fill: none; stroke: #333333; stroke-width: 1.4; stroke-linecap: round"/>
    <path d="M 138.275598 85.342857 
L 142.275598 87.342857 
L 138.275598 89.342857 
z
" style="fill: #333333; stroke: #333333; stroke-width: 1.4; stroke-linecap: round"/>
   </g>
   <g id="patch_3">
    <path d="M 147.835576 87.342857 
Q 206.120728 87.342857 262.840633 87.342857 
" style="fill: none; stroke: #333333; stroke-width: 1.4; stroke-linecap: round"/>
    <path d="M 258.840633 85.342857 
L 262.840633 87.342857 
L 258.840633 89.342857 
z
" style="fill: #333333; stroke: #333333; stroke-width: 1.4; stroke-linecap: round"/>
   </g>
   <g id="patch_4">
    <path d="M 268.404876 87.342857 
Q 326.690028 87.342857 383.409933 87.342857 
" style="fill: none; stroke: #333333; stroke-width: 1.4; stroke-linecap: round"/>
    <path d="M 379.409933 85.342857 
L 383.409933 87.342857 
L 379.409933 89.342857 
z
" style="fill: #333333; stroke: #333333; stroke-width: 1.4; stroke-linecap: round"/>
   </g>
   <g id="patch_5">
    <path d="M 388.974176 87.342857 
Q 447.259329 87.342857 503.979233 87.342857 
" style="fill: none; stroke: #333333; stroke-width: 1.4; stroke-linecap: round"/>
    <path d="M 499.979233 85.342857 
L 503.979233 87.342857 
L 499.979233 89.342857 
z
" style="fill: #333333; stroke: #333333; stroke-width: 1.4; stroke-linecap: round"/>
   </g>
   <g id="patch_6">
    <path d="M 509.055135 88.652376 
Q 570.241189 141.728256 630.244861 193.778477 
" style="fill: none; stroke: #333333; stroke-width: 1.4; stroke-linecap: round"/>
    <path d="M 628.533815 189.64661 
L 630.244861 193.778477 
L 625.91274 192.668194 
z
" style="fill: #333333; stroke: #333333; stroke-width: 1.4; stroke-linecap: round"/>
   </g>
   <g id="patch_7">
    <path d="M 631.089311 196.88624 
Q 570.239242 222.300965 510.833506 247.112448 
" style="fill: none; stroke: #333333; stroke-width: 1.4; stroke-linecap: round"/>
    <path d="M 515.295304 247.41636 
L 510.833506 247.112448 
L 513.753714 243.725357 
z
" style="fill: #333333; stroke: #333333; stroke-width: 1.4; stroke-linecap: round"/>
   </g>
   <g id="patch_8">
    <path d="M 505.547558 248.485714 
Q 447.262405 248.485714 390.542501 248.485714 
" style="fill: none; stroke: #333333; stroke-width: 1.4; stroke-linecap: round"/>
    <path d="M 394.542501 250.485714 
L 390.542501 248.485714 
L 394.542501 246.485714 
z
" style="fill: #333333; stroke: #333333; stroke-width: 1.4; stroke-linecap: round"/>
   </g>
   <g id="patch_9">
    <path d="M 384.978258 248.485714 
Q 326.693105 248.485714 269.9732 248.485714 
" style="fill: none; stroke: #333333; stroke-width: 1.4; stroke-linecap: round"/>
    <path d="M 273.9732 250.485714 
L 269.9732 248.485714 
L 273.9732 246.485714 
z
" style="fill: #333333; stroke: #333333; stroke-width: 1.4; stroke-linecap: round"/>
   </g>
   <g id="patch_10">
    <path d="M 264.408957 248.485714 
Q 206.123805 248.485714 149.4039 248.485714 
" style="fill: none; stroke: #333333; stroke-width: 1.4; stroke-linecap: round"/>
    <path d="M 153.4039 250.485714 
L 149.4039 248.485714 
L 153.4039 246.485714 
z
" style="fill: #333333; stroke: #333333; stroke-width: 1.4; stroke-linecap: round"/>
   </g>
   <g id="patch_11">
    <path d="M 147.839439 248.485714 
Q 427.96904 248.485714 706.533394 248.485714 
" style="fill: none; stroke: #333333; stroke-width: 1.4; stroke-linecap: round"/>
    <path d="M 702.533394 246.485714 
L 706.533394 248.485714 
L 702.533394 250.485714 
z
" style="fill: #333333; stroke: #333333; stroke-width: 1.4; stroke-linecap: round"/>
   </g>
   <g id="patch_12">
    <path d="M 145.216814 125.501425 
Q 138.603663 145.756517 132.476317 164.52366 
" style="fill: none; stroke: #333333; stroke-width: 1.4; stroke-linecap: round"/>
    <path d="M 135.619027 161.341936 
L 132.476317 164.52366 
L 131.816564 160.100457 
z
" style="fill: #333333; stroke: #333333; stroke-width: 1.4; stroke-linecap: round"/>
   </g>
   <g id="patch_13">
    <path d="M 133.117791 205.145131 
Q 138.603526 208.200038 142.721759 210.493407 
" style="fill: none; stroke: #333333; stroke-width: 1.4; stroke-linecap: round"/>
    <path d="M 140.200156 206.799965 
L 142.721759 210.493407 
L 138.254044 210.294624 
z
" style="fill: #333333; stroke: #333333; stroke-width: 1.4; stroke-linecap: round"/>
   </g>
   <g id="patch_14">
    <path d="M 265.786114 125.501425 
Q 259.172963 145.756517 253.045617 164.52366 
" style="fill: none; stroke: #333333; stroke-width: 1.4; stroke-linecap: round"/>
    <path d="M 256.188328 161.341936 
L 253.045617 164.52366 
L 252.385864 160.100457 
z
" style="fill: #333333; stroke: #333333; stroke-width: 1.4; stroke-linecap: round"/>
   </g>
   <g id="patch_15">
    <path d="M 253.687091 205.145131 
Q 259.172826 208.200038 263.29106 210.493407 
" style="fill: none; stroke: #333333; stroke-width: 1.4; stroke-linecap: round"/>
    <path d="M 260.769456 206.799965 
L 263.29106 210.493407 
L 258.823344 210.294624 
z
" style="fill: #333333; stroke: #333333; stroke-width: 1.4; stroke-linecap: round"/>
   </g>
   <g id="patch_16">
    <path d="M 386.355414 125.501425 
Q 379.742263 145.756517 373.614917 164.52366 
" style="fill: none; stroke: #333333; stroke-width: 1.4; stroke-linecap: round"/>
    <path d="M 376.757628 161.341936 
L 373.614917 164.52366 
L 372.955164 160.100457 
z
" style="fill: #333333; stroke: #333333; stroke-width: 1.4; stroke-linecap: round"/>
   </g>
   <g id="patch_17">
    <path d="M 374.256391 205.145131 
Q 379.742127 208.200038 383.86036 210.493407 
" style="fill: none; stroke: #333333; stroke-width: 1.4; stroke-linecap: round"/>
    <path d="M 381.338757 206.799965 
L 383.86036 210.493407 
L 379.392644 210.294624 
z
" style="fill: #333333; stroke: #333333; stroke-width: 1.4; stroke-linecap: round"/>
   </g>
   <g id="patch_18">
    <path d="M 506.924715 125.501425 
Q 500.311563 145.756517 494.184218 164.52366 
" style="fill: none; stroke: #333333; stroke-width: 1.4; stroke-linecap: round"/>
    <path d="M 497.326928 161.341936 
L 494.184218 164.52366 
L 493.524465 160.100457 
z
" style="fill: #333333; stroke: #333333; stroke-width: 1.4; stroke-linecap: round"/>
   </g>
   <g id="patch_19">
    <path d="M 494.825691 205.145131 
Q 500.311427 208.200038 504.42966 210.493407 
" style="fill: none; stroke: #333333; stroke-width: 1.4; stroke-linecap: round"/>
    <path d="M 501.908057 206.799965 
L 504.42966 210.493407 
L 499.961944 210.294624 
z
" style="fill: #333333; stroke: #333333; stroke-width: 1.4; stroke-linecap: round"/>
   </g>
   <g id="patch_20">
    <path d="M 30.091088 138.102857 
L 97.609896 138.102857 
Q 101.468114 138.102857 101.468114 131.657143 
L 101.468114 43.028571 
Q 101.468114 36.582857 97.609896 36.582857 
L 30.091088 36.582857 
Q 26.23287 36.582857 26.23287 43.028571 
L 26.23287 131.657143 
Q 26.23287 138.102857 30.091088 138.102857 
z
" clip-path="url(#p8fda36562b)" style="fill: #777777; stroke: #222222; stroke-width: 1.1; stroke-linejoin: miter"/>
   </g>
   <g id="patch_21">
    <path d="M 102.432668 138.102857 
L 189.242564 138.102857 
Q 193.100782 138.102857 193.100782 131.657143 
L 193.100782 43.028571 
Q 193.100782 36.582857 189.242564 36.582857 
L 102.432668 36.582857 
Q 98.574451 36.582857 98.574451 43.028571 
L 98.574451 131.657143 
Q 98.574451 138.102857 102.432668 138.102857 
z
" clip-path="url(#p8fda36562b)" style="fill: #4c72b0; stroke: #222222; stroke-width: 1.1; stroke-linejoin: miter"/>
   </g>
   <g id="patch_22">
    <path d="M 223.001968 138.102857 
L 309.811865 138.102857 
Q 313.670082 138.102857 313.670082 131.657143 
L 313.670082 43.028571 
Q 313.670082 36.582857 309.811865 36.582857 
L 223.001968 36.582857 
Q 219.143751 36.582857 219.143751 43.028571 
L 219.143751 131.657143 
Q 219.143751 138.102857 223.001968 138.102857 
z
" clip-path="url(#p8fda36562b)" style="fill: #4c72b0; stroke: #222222; stroke-width: 1.1; stroke-linejoin: miter"/>
   </g>
   <g id="patch_23">
    <path d="M 343.571269 138.102857 
L 430.381165 138.102857 
Q 434.239383 138.102857 434.239383 131.657143 
L 434.239383 43.028571 
Q 434.239383 36.582857 430.381165 36.582857 
L 343.571269 36.582857 
Q 339.713051 36.582857 339.713051 43.028571 
L 339.713051 131.657143 
Q 339.713051 138.102857 343.571269 138.102857 
z
" clip-path="url(#p8fda36562b)" style="fill: #4c72b0; stroke: #222222; stroke-width: 1.1; stroke-linejoin: miter"/>
   </g>
   <g id="patch_24">
    <path d="M 464.140569 138.102857 
L 550.950465 138.102857 
Q 554.808683 138.102857 554.808683 131.657143 
L 554.808683 43.028571 
Q 554.808683 36.582857 550.950465 36.582857 
L 464.140569 36.582857 
Q 460.282351 36.582857 460.282351 43.028571 
L 460.282351 131.657143 
Q 460.282351 138.102857 464.140569 138.102857 
z
" clip-path="url(#p8fda36562b)" style="fill: #4c72b0; stroke: #222222; stroke-width: 1.1; stroke-linejoin: miter"/>
   </g>
   <g id="patch_25">
    <path d="M 584.709869 254.931429 
L 681.165309 254.931429 
Q 685.023527 254.931429 685.023527 248.485714 
L 685.023527 143.742857 
Q 685.023527 137.297143 681.165309 137.297143 
L 584.709869 137.297143 
Q 580.851652 137.297143 580.851652 143.742857 
L 580.851652 248.485714 
Q 580.851652 254.931429 584.709869 254.931429 
z
" clip-path="url(#p8fda36562b)" style="fill: #dd8452; stroke: #222222; stroke-width: 1.1; stroke-linejoin: miter"/>
   </g>
   <g id="patch_26">
    <path d="M 464.140569 299.245714 
L 550.950465 299.245714 
Q 554.808683 299.245714 554.808683 292.8 
L 554.808683 204.171429 
Q 554.808683 197.725714 550.950465 197.725714 
L 464.140569 197.725714 
Q 460.282351 197.725714 460.282351 204.171429 
L 460.282351 292.8 
Q 460.282351 299.245714 464.140569 299.245714 
z
" clip-path="url(#p8fda36562b)" style="fill: #55a868; stroke: #222222; stroke-width: 1.1; stroke-linejoin: miter"/>
   </g>
   <g id="patch_27">
    <path d="M 343.571269 299.245714 
L 430.381165 299.245714 
Q 434.239383 299.245714 434.239383 292.8 
L 434.239383 204.171429 
Q 434.239383 197.725714 430.381165 197.725714 
L 343.571269 197.725714 
Q 339.713051 197.725714 339.713051 204.171429 
L 339.713051 292.8 
Q 339.713051 299.245714 343.571269 299.245714 
z
" clip-path="url(#p8fda36562b)" style="fill: #55a868; stroke: #222222; stroke-width: 1.1; stroke-linejoin: miter"/>
   </g>
   <g id="patch_28">
    <path d="M 223.001968 299.245714 
L 309.811865 299.245714 
Q 313.670082 299.245714 313.670082 292.8 
L 313.670082 204.171429 
Q 313.670082 197.725714 309.811865 197.725714 
L 223.001968 197.725714 
Q 219.143751 197.725714 219.143751 204.171429 
L 219.143751 292.8 
Q 219.143751 299.245714 223.001968 299.245714 
z
" clip-path="url(#p8fda36562b)" style="fill: #55a868; stroke: #222222; stroke-width: 1.1; stroke-linejoin: miter"/>
   </g>
   <g id="patch_29">
    <path d="M 102.432668 299.245714 
L 189.242564 299.245714 
Q 193.100782 299.245714 193.100782 292.8 
L 193.100782 204.171429 
Q 193.100782 197.725714 189.242564 197.725714 
L 102.432668 197.725714 
Q 98.574451 197.725714 98.574451 204.171429 
L 98.574451 292.8 
Q 98.574451 299.245714 102.432668 299.245714 
z
" clip-path="url(#p8fda36562b)" style="fill: #55a868; stroke: #222222; stroke-width: 1.1; stroke-linejoin: miter"/>
   </g>
   <g id="patch_30">
    <path d="M 666.696993 299.245714 
L 753.50689 299.245714 
Q 757.365107 299.245714 757.365107 292.8 
L 757.365107 204.171429 
Q 757.365107 197.725714 753.50689 197.725714 
L 666.696993 197.725714 
Q 662.838776 197.725714 662.838776 204.171429 
L 662.838776 292.8 
Q 662.838776 299.245714 666.696993 299.245714 
z
" clip-path="url(#p8fda36562b)" style="fill: #8172b2; stroke: #222222; stroke-width: 1.1; stroke-linejoin: miter"/>
   </g>
   <g id="patch_31">
    <path d="M 102.432668 218.674286 
L 160.305932 218.674286 
Q 164.16415 218.674286 164.16415 212.228571 
L 164.16415 159.857143 
Q 164.16415 153.411429 160.305932 153.411429 
L 102.432668 153.411429 
Q 98.574451 153.411429 98.574451 159.857143 
L 98.574451 212.228571 
Q 98.574451 218.674286 102.432668 218.674286 
z
" clip-path="url(#p8fda36562b)" style="fill: #c44e52; stroke: #222222; stroke-width: 1.1; stroke-linejoin: miter"/>
   </g>
   <g id="patch_32">
    <path d="M 223.001968 218.674286 
L 280.875233 218.674286 
Q 284.73345 218.674286 284.73345 212.228571 
L 284.73345 159.857143 
Q 284.73345 153.411429 280.875233 153.411429 
L 223.001968 153.411429 
Q 219.143751 153.411429 219.143751 159.857143 
L 219.143751 212.228571 
Q 219.143751 218.674286 223.001968 218.674286 
z
" clip-path="url(#p8fda36562b)" style="fill: #c44e52; stroke: #222222; stroke-width: 1.1; stroke-linejoin: miter"/>
   </g>
   <g id="patch_33">
    <path d="M 343.571269 218.674286 
L 401.444533 218.674286 
Q 405.30275 218.674286 405.30275 212.228571 
L 405.30275 159.857143 
Q 405.30275 153.411429 401.444533 153.411429 
L 343.571269 153.411429 
Q 339.713051 153.411429 339.713051 159.857143 
L 339.713051 212.228571 
Q 339.713051 218.674286 343.571269 218.674286 
z
" clip-path="url(#p8fda36562b)" style="fill: #c44e52; stroke: #222222; stroke-width: 1.1; stroke-linejoin: miter"/>
   </g>
   <g id="patch_34">
    <path d="M 464.140569 218.674286 
L 522.013833 218.674286 
Q 525.872051 218.674286 525.872051 212.228571 
L 525.872051 159.857143 
Q 525.872051 153.411429 522.013833 153.411429 
L 464.140569 153.411429 
Q 460.282351 153.411429 460.282351 159.857143 
L 460.282351 212.228571 
Q 460.282351 218.674286 464.140569 218.674286 
z
" clip-path="url(#p8fda36562b)" style="fill: #c44e52; stroke: #222222; stroke-width: 1.1; stroke-linejoin: miter"/>
   </g>
   <g id="text_1">
    <!-- Measurements -->
    <g style="fill: #ffffff" transform="translate(30.61518 84.787279) scale(0.09 -0.09)">
     <defs>
      <path id="DejaVuSans-4d" d="M 628 4666 
L 1569 4666 
L 2759 1491 
L 3956 4666 
L 4897 4666 
L 4897 0 
L 4281 0 
L 4281 4097 
L 3078 897 
L 2444 897 
L 1241 4097 
L 1241 0 
L 628 0 
L 628 4666 
z
" transform="scale(0.015625)"/>
      <path id="DejaVuSans-65" d="M 3597 1894 
L 3597 1613 
L 953 1613 
Q 991 1019 1311 708 
Q 1631 397 2203 397 
Q 2534 397 2845 478 
Q 3156 559 3463 722 
L 3463 178 
Q 3153 47 2828 -22 
Q 2503 -91 2169 -91 
Q 1331 -91 842 396 
Q 353 884 353 1716 
Q 353 2575 817 3079 
Q 1281 3584 2069 3584 
Q 2775 3584 3186 3129 
Q 3597 2675 3597 1894 
z
M 3022 2063 
Q 3016 2534 2758 2815 
Q 2500 3097 2075 3097 
Q 1594 3097 1305 2825 
Q 1016 2553 972 2059 
L 3022 2063 
z
" transform="scale(0.015625)"/>
      <path id="DejaVuSans-61" d="M 2194 1759 
Q 1497 1759 1228 1600 
Q 959 1441 959 1056 
Q 959 750 1161 570 
Q 1363 391 1709 391 
Q 2188 391 2477 730 
Q 2766 1069 2766 1631 
L 2766 1759 
L 2194 1759 
z
M 3341 1997 
L 3341 0 
L 2766 0 
L 2766 531 
Q 2569 213 2275 61 
Q 1981 -91 1556 -91 
Q 1019 -91 701 211 
Q 384 513 384 1019 
Q 384 1609 779 1909 
Q 1175 2209 1959 2209 
L 2766 2209 
L 2766 2266 
Q 2766 2663 2505 2880 
Q 2244 3097 1772 3097 
Q 1472 3097 1187 3025 
Q 903 2953 641 2809 
L 641 3341 
Q 956 3463 1253 3523 
Q 1550 3584 1831 3584 
Q 2591 3584 2966 3190 
Q 3341 2797 3341 1997 
z
" transform="scale(0.015625)"/>
      <path id="DejaVuSans-73" d="M 2834 3397 
L 2834 2853 
Q 2591 2978 2328 3040 
Q 2066 3103 1784 3103 
Q 1356 3103 1142 2972 
Q 928 2841 928 2578 
Q 928 2378 1081 2264 
Q 1234 2150 1697 2047 
L 1894 2003 
Q 2506 1872 2764 1633 
Q 3022 1394 3022 966 
Q 3022 478 2636 193 
Q 2250 -91 1575 -91 
Q 1294 -91 989 -36 
Q 684 19 347 128 
L 347 722 
Q 666 556 975 473 
Q 1284 391 1588 391 
Q 1994 391 2212 530 
Q 2431 669 2431 922 
Q 2431 1156 2273 1281 
Q 2116 1406 1581 1522 
L 1381 1569 
Q 847 1681 609 1914 
Q 372 2147 372 2553 
Q 372 3047 722 3315 
Q 1072 3584 1716 3584 
Q 2034 3584 2315 3537 
Q 2597 3491 2834 3397 
z
" transform="scale(0.015625)"/>
      <path id="DejaVuSans-75" d="M 544 1381 
L 544 3500 
L 1119 3500 
L 1119 1403 
Q 1119 906 1312 657 
Q 1506 409 1894 409 
Q 2359 409 2629 706 
Q 2900 1003 2900 1516 
L 2900 3500 
L 3475 3500 
L 3475 0 
L 2900 0 
L 2900 538 
Q 2691 219 2414 64 
Q 2138 -91 1772 -91 
Q 1169 -91 856 284 
Q 544 659 544 1381 
z
M 1991 3584 
L 1991 3584 
z
" transform="scale(0.015625)"/>
      <path id="DejaVuSans-72" d="M 2631 2963 
Q 2534 3019 2420 3045 
Q 2306 3072 2169 3072 
Q 1681 3072 1420 2755 
Q 1159 2438 1159 1844 
L 1159 0 
L 581 0 
L 581 3500 
L 1159 3500 
L 1159 2956 
Q 1341 3275 1631 3429 
Q 1922 3584 2338 3584 
Q 2397 3584 2469 3576 
Q 2541 3569 2628 3553 
L 2631 2963 
z
" transform="scale(0.015625)"/>
      <path id="DejaVuSans-6d" d="M 3328 2828 
Q 3544 3216 3844 3400 
Q 4144 3584 4550 3584 
Q 5097 3584 5394 3201 
Q 5691 2819 5691 2113 
L 5691 0 
L 5113 0 
L 5113 2094 
Q 5113 2597 4934 2840 
Q 4756 3084 4391 3084 
Q 3944 3084 3684 2787 
Q 3425 2491 3425 1978 
L 3425 0 
L 2847 0 
L 2847 2094 
Q 2847 2600 2669 2842 
Q 2491 3084 2119 3084 
Q 1678 3084 1418 2786 
Q 1159 2488 1159 1978 
L 1159 0 
L 581 0 
L 581 3500 
L 1159 3500 
L 1159 2956 
Q 1356 3278 1631 3431 
Q 1906 3584 2284 3584 
Q 2666 3584 2933 3390 
Q 3200 3197 3328 2828 
z
" transform="scale(0.015625)"/>
      <path id="DejaVuSans-6e" d="M 3513 2113 
L 3513 0 
L 2938 0 
L 2938 2094 
Q 2938 2591 2744 2837 
Q 2550 3084 2163 3084 
Q 1697 3084 1428 2787 
Q 1159 2491 1159 1978 
L 1159 0 
L 581 0 
L 581 3500 
L 1159 3500 
L 1159 2956 
Q 1366 3272 1645 3428 
Q 1925 3584 2291 3584 
Q 2894 3584 3203 3211 
Q 3513 2838 3513 2113 
z
" transform="scale(0.015625)"/>
      <path id="DejaVuSans-74" d="M 1172 4494 
L 1172 3500 
L 2356 3500 
L 2356 3053 
L 1172 3053 
L 1172 1153 
Q 1172 725 1289 603 
Q 1406 481 1766 481 
L 2356 481 
L 2356 0 
L 1766 0 
Q 1100 0 847 248 
Q 594 497 594 1153 
L 594 3053 
L 172 3053 
L 172 3500 
L 594 3500 
L 594 4494 
L 1172 4494 
z
" transform="scale(0.015625)"/>
     </defs>
     <use xlink:href="#DejaVuSans-4d"/>
     <use xlink:href="#DejaVuSans-65" transform="translate(86.279297 0)"/>
     <use xlink:href="#DejaVuSans-61" transform="translate(147.802734 0)"/>
     <use xlink:href="#DejaVuSans-73" transform="translate(209.082031 0)"/>
     <use xlink:href="#DejaVuSans-75" transform="translate(261.181641 0)"/>
     <use xlink:href="#DejaVuSans-72" transform="translate(324.560547 0)"/>
     <use xlink:href="#DejaVuSans-65" transform="translate(363.423828 0)"/>
     <use xlink:href="#DejaVuSans-6d" transform="translate(424.947266 0)"/>
     <use xlink:href="#DejaVuSans-65" transform="translate(522.359375 0)"/>
     <use xlink:href="#DejaVuSans-6e" transform="translate(583.882812 0)"/>
     <use xlink:href="#DejaVuSans-74" transform="translate(647.261719 0)"/>
     <use xlink:href="#DejaVuSans-73" transform="translate(686.470703 0)"/>
    </g>
    <!-- → 2D reshape -->
    <g style="fill: #ffffff" transform="translate(32.794164 94.86531) scale(0.09 -0.09)">
     <defs>
      <path id="DejaVuSans-2192" d="M 5050 2147 
L 5050 1866 
L 3822 638 
L 3447 1013 
L 4175 1741 
L 366 1741 
L 366 2272 
L 4175 2272 
L 3447 3000 
L 3822 3375 
L 5050 2147 
z
" transform="scale(0.015625)"/>
      <path id="DejaVuSans-20" transform="scale(0.015625)"/>
      <path id="DejaVuSans-32" d="M 1228 531 
L 3431 531 
L 3431 0 
L 469 0 
L 469 531 
Q 828 903 1448 1529 
Q 2069 2156 2228 2338 
Q 2531 2678 2651 2914 
Q 2772 3150 2772 3378 
Q 2772 3750 2511 3984 
Q 2250 4219 1831 4219 
Q 1534 4219 1204 4116 
Q 875 4013 500 3803 
L 500 4441 
Q 881 4594 1212 4672 
Q 1544 4750 1819 4750 
Q 2544 4750 2975 4387 
Q 3406 4025 3406 3419 
Q 3406 3131 3298 2873 
Q 3191 2616 2906 2266 
Q 2828 2175 2409 1742 
Q 1991 1309 1228 531 
z
" transform="scale(0.015625)"/>
      <path id="DejaVuSans-44" d="M 1259 4147 
L 1259 519 
L 2022 519 
Q 2988 519 3436 956 
Q 3884 1394 3884 2338 
Q 3884 3275 3436 3711 
Q 2988 4147 2022 4147 
L 1259 4147 
z
M 628 4666 
L 1925 4666 
Q 3281 4666 3915 4102 
Q 4550 3538 4550 2338 
Q 4550 1131 3912 565 
Q 3275 0 1925 0 
L 628 0 
L 628 4666 
z
" transform="scale(0.015625)"/>
      <path id="DejaVuSans-68" d="M 3513 2113 
L 3513 0 
L 2938 0 
L 2938 2094 
Q 2938 2591 2744 2837 
Q 2550 3084 2163 3084 
Q 1697 3084 1428 2787 
Q 1159 2491 1159 1978 
L 1159 0 
L 581 0 
L 581 4863 
L 1159 4863 
L 1159 2956 
Q 1366 3272 1645 3428 
Q 1925 3584 2291 3584 
Q 2894 3584 3203 3211 
Q 3513 2838 3513 2113 
z
" transform="scale(0.015625)"/>
      <path id="DejaVuSans-70" d="M 1159 525 
L 1159 -1331 
L 581 -1331 
L 581 3500 
L 1159 3500 
L 1159 2969 
Q 1341 3281 1617 3432 
Q 1894 3584 2278 3584 
Q 2916 3584 3314 3078 
Q 3713 2572 3713 1747 
Q 3713 922 3314 415 
Q 2916 -91 2278 -91 
Q 1894 -91 1617 61 
Q 1341 213 1159 525 
z
M 3116 1747 
Q 3116 2381 2855 2742 
Q 2594 3103 2138 3103 
Q 1681 3103 1420 2742 
Q 1159 2381 1159 1747 
Q 1159 1113 1420 752 
Q 1681 391 2138 391 
Q 2594 391 2855 752 
Q 3116 1113 3116 1747 
z
" transform="scale(0.015625)"/>
     </defs>
     <use xlink:href="#DejaVuSans-2192"/>
     <use xlink:href="#DejaVuSans-20" transform="translate(83.789062 0)"/>
     <use xlink:href="#DejaVuSans-32" transform="translate(115.576172 0)"/>
     <use xlink:href="#DejaVuSans-44" transform="translate(179.199219 0)"/>
     <use xlink:href="#DejaVuSans-20" transform="translate(256.201172 0)"/>
     <use xlink:href="#DejaVuSans-72" transform="translate(287.988281 0)"/>
     <use xlink:href="#DejaVuSans-65" transform="translate(326.851562 0)"/>
     <use xlink:href="#DejaVuSans-73" transform="translate(388.375 0)"/>
     <use xlink:href="#DejaVuSans-68" transform="translate(440.474609 0)"/>
     <use xlink:href="#DejaVuSans-61" transform="translate(503.853516 0)"/>
     <use xlink:href="#DejaVuSans-70" transform="translate(565.132812 0)"/>
     <use xlink:href="#DejaVuSans-65" transform="translate(628.609375 0)"/>
    </g>
   </g>
   <g id="text_2">
    <!-- Encoder -->
    <g style="fill: #ffffff" transform="translate(127.438944 84.787279) scale(0.09 -0.09)">
     <defs>
      <path id="DejaVuSans-45" d="M 628 4666 
L 3578 4666 
L 3578 4134 
L 1259 4134 
L 1259 2753 
L 3481 2753 
L 3481 2222 
L 1259 2222 
L 1259 531 
L 3634 531 
L 3634 0 
L 628 0 
L 628 4666 
z
" transform="scale(0.015625)"/>
      <path id="DejaVuSans-63" d="M 3122 3366 
L 3122 2828 
Q 2878 2963 2633 3030 
Q 2388 3097 2138 3097 
Q 1578 3097 1268 2742 
Q 959 2388 959 1747 
Q 959 1106 1268 751 
Q 1578 397 2138 397 
Q 2388 397 2633 464 
Q 2878 531 3122 666 
L 3122 134 
Q 2881 22 2623 -34 
Q 2366 -91 2075 -91 
Q 1284 -91 818 406 
Q 353 903 353 1747 
Q 353 2603 823 3093 
Q 1294 3584 2113 3584 
Q 2378 3584 2631 3529 
Q 2884 3475 3122 3366 
z
" transform="scale(0.015625)"/>
      <path id="DejaVuSans-6f" d="M 1959 3097 
Q 1497 3097 1228 2736 
Q 959 2375 959 1747 
Q 959 1119 1226 758 
Q 1494 397 1959 397 
Q 2419 397 2687 759 
Q 2956 1122 2956 1747 
Q 2956 2369 2687 2733 
Q 2419 3097 1959 3097 
z
M 1959 3584 
Q 2709 3584 3137 3096 
Q 3566 2609 3566 1747 
Q 3566 888 3137 398 
Q 2709 -91 1959 -91 
Q 1206 -91 779 398 
Q 353 888 353 1747 
Q 353 2609 779 3096 
Q 1206 3584 1959 3584 
z
" transform="scale(0.015625)"/>
      <path id="DejaVuSans-64" d="M 2906 2969 
L 2906 4863 
L 3481 4863 
L 3481 0 
L 2906 0 
L 2906 525 
Q 2725 213 2448 61 
Q 2172 -91 1784 -91 
Q 1150 -91 751 415 
Q 353 922 353 1747 
Q 353 2572 751 3078 
Q 1150 3584 1784 3584 
Q 2172 3584 2448 3432 
Q 2725 3281 2906 2969 
z
M 947 1747 
Q 947 1113 1208 752 
Q 1469 391 1925 391 
Q 2381 391 2643 752 
Q 2906 1113 2906 1747 
Q 2906 2381 2643 2742 
Q 2381 3103 1925 3103 
Q 1469 3103 1208 2742 
Q 947 2381 947 1747 
z
" transform="scale(0.015625)"/>
     </defs>
     <use xlink:href="#DejaVuSans-45"/>
     <use xlink:href="#DejaVuSans-6e" transform="translate(63.183594 0)"/>
     <use xlink:href="#DejaVuSans-63" transform="translate(126.5625 0)"/>
     <use xlink:href="#DejaVuSans-6f" transform="translate(181.542969 0)"/>
     <use xlink:href="#DejaVuSans-64" transform="translate(242.724609 0)"/>
     <use xlink:href="#DejaVuSans-65" transform="translate(306.201172 0)"/>
     <use xlink:href="#DejaVuSans-72" transform="translate(367.724609 0)"/>
    </g>
    <!-- L1 -->
    <g style="fill: #ffffff" transform="translate(140.467148 94.86531) scale(0.09 -0.09)">
     <defs>
      <path id="DejaVuSans-4c" d="M 628 4666 
L 1259 4666 
L 1259 531 
L 3531 531 
L 3531 0 
L 628 0 
L 628 4666 
z
" transform="scale(0.015625)"/>
      <path id="DejaVuSans-31" d="M 794 531 
L 1825 531 
L 1825 4091 
L 703 3866 
L 703 4441 
L 1819 4666 
L 2450 4666 
L 2450 531 
L 3481 531 
L 3481 0 
L 794 0 
L 794 531 
z
" transform="scale(0.015625)"/>
     </defs>
     <use xlink:href="#DejaVuSans-4c"/>
     <use xlink:href="#DejaVuSans-31" transform="translate(55.712891 0)"/>
    </g>
   </g>
   <g id="text_3">
    <!-- Encoder -->
    <g style="fill: #ffffff" transform="translate(248.008245 84.787279) scale(0.09 -0.09)">
     <use xlink:href="#DejaVuSans-45"/>
     <use xlink:href="#DejaVuSans-6e" transform="translate(63.183594 0)"/>
     <use xlink:href="#DejaVuSans-63" transform="translate(126.5625 0)"/>
     <use xlink:href="#DejaVuSans-6f" transform="translate(181.542969 0)"/>
     <use xlink:href="#DejaVuSans-64" transform="translate(242.724609 0)"/>
     <use xlink:href="#DejaVuSans-65" transform="translate(306.201172 0)"/>
     <use xlink:href="#DejaVuSans-72" transform="translate(367.724609 0)"/>
    </g>
    <!-- L2 -->
    <g style="fill: #ffffff" transform="translate(261.036448 94.86531) scale(0.09 -0.09)">
     <use xlink:href="#DejaVuSans-4c"/>
     <use xlink:href="#DejaVuSans-32" transform="translate(55.712891 0)"/>
    </g>
   </g>
   <g id="text_4">
    <!-- Encoder -->
    <g style="fill: #ffffff" transform="translate(368.577545 84.787279) scale(0.09 -0.09)">
     <use xlink:href="#DejaVuSans-45"/>
     <use xlink:href="#DejaVuSans-6e" transform="translate(63.183594 0)"/>
     <use xlink:href="#DejaVuSans-63" transform="translate(126.5625 0)"/>
     <use xlink:href="#DejaVuSans-6f" transform="translate(181.542969 0)"/>
     <use xlink:href="#DejaVuSans-64" transform="translate(242.724609 0)"/>
     <use xlink:href="#DejaVuSans-65" transform="translate(306.201172 0)"/>
     <use xlink:href="#DejaVuSans-72" transform="translate(367.724609 0)"/>
    </g>
    <!-- L3 -->
    <g style="fill: #ffffff" transform="translate(381.605748 94.86531) scale(0.09 -0.09)">
     <defs>
      <path id="DejaVuSans-33" d="M 2597 2516 
Q 3050 2419 3304 2112 
Q 3559 1806 3559 1356 
Q 3559 666 3084 287 
Q 2609 -91 1734 -91 
Q 1441 -91 1130 -33 
Q 819 25 488 141 
L 488 750 
Q 750 597 1062 519 
Q 1375 441 1716 441 
Q 2309 441 2620 675 
Q 2931 909 2931 1356 
Q 2931 1769 2642 2001 
Q 2353 2234 1838 2234 
L 1294 2234 
L 1294 2753 
L 1863 2753 
Q 2328 2753 2575 2939 
Q 2822 3125 2822 3475 
Q 2822 3834 2567 4026 
Q 2313 4219 1838 4219 
Q 1578 4219 1281 4162 
Q 984 4106 628 3988 
L 628 4550 
Q 988 4650 1302 4700 
Q 1616 4750 1894 4750 
Q 2613 4750 3031 4423 
Q 3450 4097 3450 3541 
Q 3450 3153 3228 2886 
Q 3006 2619 2597 2516 
z
" transform="scale(0.015625)"/>
     </defs>
     <use xlink:href="#DejaVuSans-4c"/>
     <use xlink:href="#DejaVuSans-33" transform="translate(55.712891 0)"/>
    </g>
   </g>
   <g id="text_5">
    <!-- Encoder -->
    <g style="fill: #ffffff" transform="translate(489.146845 84.787279) scale(0.09 -0.09)">
     <use xlink:href="#DejaVuSans-45"/>
     <use xlink:href="#DejaVuSans-6e" transform="translate(63.183594 0)"/>
     <use xlink:href="#DejaVuSans-63" transform="translate(126.5625 0)"/>
     <use xlink:href="#DejaVuSans-6f" transform="translate(181.542969 0)"/>
     <use xlink:href="#DejaVuSans-64" transform="translate(242.724609 0)"/>
     <use xlink:href="#DejaVuSans-65" transform="translate(306.201172 0)"/>
     <use xlink:href="#DejaVuSans-72" transform="translate(367.724609 0)"/>
    </g>
    <!-- L4 -->
    <g style="fill: #ffffff" transform="translate(502.175048 94.86531) scale(0.09 -0.09)">
     <defs>
      <path id="DejaVuSans-34" d="M 2419 4116 
L 825 1625 
L 2419 1625 
L 2419 4116 
z
M 2253 4666 
L 3047 4666 
L 3047 1625 
L 3713 1625 
L 3713 1100 
L 3047 1100 
L 3047 0 
L 2419 0 
L 2419 1100 
L 313 1100 
L 313 1709 
L 2253 4666 
z
" transform="scale(0.015625)"/>
     </defs>
     <use xlink:href="#DejaVuSans-4c"/>
     <use xlink:href="#DejaVuSans-34" transform="translate(55.712891 0)"/>
    </g>
   </g>
   <g id="text_6">
    <!-- Bottleneck -->
    <g style="fill: #ffffff" transform="translate(608.848527 198.597723) scale(0.09 -0.09)">
     <defs>
      <path id="DejaVuSans-42" d="M 1259 2228 
L 1259 519 
L 2272 519 
Q 2781 519 3026 730 
Q 3272 941 3272 1375 
Q 3272 1813 3026 2020 
Q 2781 2228 2272 2228 
L 1259 2228 
z
M 1259 4147 
L 1259 2741 
L 2194 2741 
Q 2656 2741 2882 2914 
Q 3109 3088 3109 3444 
Q 3109 3797 2882 3972 
Q 2656 4147 2194 4147 
L 1259 4147 
z
M 628 4666 
L 2241 4666 
Q 2963 4666 3353 4366 
Q 3744 4066 3744 3513 
Q 3744 3084 3544 2831 
Q 3344 2578 2956 2516 
Q 3422 2416 3680 2098 
Q 3938 1781 3938 1306 
Q 3938 681 3513 340 
Q 3088 0 2303 0 
L 628 0 
L 628 4666 
z
" transform="scale(0.015625)"/>
      <path id="DejaVuSans-6c" d="M 603 4863 
L 1178 4863 
L 1178 0 
L 603 0 
L 603 4863 
z
" transform="scale(0.015625)"/>
      <path id="DejaVuSans-6b" d="M 581 4863 
L 1159 4863 
L 1159 1991 
L 2875 3500 
L 3609 3500 
L 1753 1863 
L 3688 0 
L 2938 0 
L 1159 1709 
L 1159 0 
L 581 0 
L 581 4863 
z
" transform="scale(0.015625)"/>
     </defs>
     <use xlink:href="#DejaVuSans-42"/>
     <use xlink:href="#DejaVuSans-6f" transform="translate(68.603516 0)"/>
     <use xlink:href="#DejaVuSans-74" transform="translate(129.785156 0)"/>
     <use xlink:href="#DejaVuSans-74" transform="translate(168.994141 0)"/>
     <use xlink:href="#DejaVuSans-6c" transform="translate(208.203125 0)"/>
     <use xlink:href="#DejaVuSans-65" transform="translate(235.986328 0)"/>
     <use xlink:href="#DejaVuSans-6e" transform="translate(297.509766 0)"/>
     <use xlink:href="#DejaVuSans-65" transform="translate(360.888672 0)"/>
     <use xlink:href="#DejaVuSans-63" transform="translate(422.412109 0)"/>
     <use xlink:href="#DejaVuSans-6b" transform="translate(477.392578 0)"/>
    </g>
   </g>
   <g id="text_7">
    <!-- Decoder -->
    <g style="fill: #ffffff" transform="translate(488.608251 245.930136) scale(0.09 -0.09)">
     <use xlink:href="#DejaVuSans-44"/>
     <use xlink:href="#DejaVuSans-65" transform="translate(77.001953 0)"/>
     <use xlink:href="#DejaVuSans-63" transform="translate(138.525391 0)"/>
     <use xlink:href="#DejaVuSans-6f" transform="translate(193.505859 0)"/>
     <use xlink:href="#DejaVuSans-64" transform="translate(254.6875 0)"/>
     <use xlink:href="#DejaVuSans-65" transform="translate(318.164062 0)"/>
     <use xlink:href="#DejaVuSans-72" transform="translate(379.6875 0)"/>
    </g>
    <!-- L4 -->
    <g style="fill: #ffffff" transform="translate(502.175048 256.008167) scale(0.09 -0.09)">
     <use xlink:href="#DejaVuSans-4c"/>
     <use xlink:href="#DejaVuSans-34" transform="translate(55.712891 0)"/>
    </g>
   </g>
   <g id="text_8">
    <!-- Decoder -->
    <g style="fill: #ffffff" transform="translate(368.038951 245.930136) scale(0.09 -0.09)">
     <use xlink:href="#DejaVuSans-44"/>
     <use xlink:href="#DejaVuSans-65" transform="translate(77.001953 0)"/>
     <use xlink:href="#DejaVuSans-63" transform="translate(138.525391 0)"/>
     <use xlink:href="#DejaVuSans-6f" transform="translate(193.505859 0)"/>
     <use xlink:href="#DejaVuSans-64" transform="translate(254.6875 0)"/>
     <use xlink:href="#DejaVuSans-65" transform="translate(318.164062 0)"/>
     <use xlink:href="#DejaVuSans-72" transform="translate(379.6875 0)"/>
    </g>
    <!-- L3 -->
    <g style="fill: #ffffff" transform="translate(381.605748 256.008167) scale(0.09 -0.09)">
     <use xlink:href="#DejaVuSans-4c"/>
     <use xlink:href="#DejaVuSans-33" transform="translate(55.712891 0)"/>
    </g>
   </g>
   <g id="text_9">
    <!-- Decoder -->
    <g style="fill: #ffffff" transform="translate(247.469651 245.930136) scale(0.09 -0.09)">
     <use xlink:href="#DejaVuSans-44"/>
     <use xlink:href="#DejaVuSans-65" transform="translate(77.001953 0)"/>
     <use xlink:href="#DejaVuSans-63" transform="translate(138.525391 0)"/>
     <use xlink:href="#DejaVuSans-6f" transform="translate(193.505859 0)"/>
     <use xlink:href="#DejaVuSans-64" transform="translate(254.6875 0)"/>
     <use xlink:href="#DejaVuSans-65" transform="translate(318.164062 0)"/>
     <use xlink:href="#DejaVuSans-72" transform="translate(379.6875 0)"/>
    </g>
    <!-- L2 -->
    <g style="fill: #ffffff" transform="translate(261.036448 256.008167) scale(0.09 -0.09)">
     <use xlink:href="#DejaVuSans-4c"/>
     <use xlink:href="#DejaVuSans-32" transform="translate(55.712891 0)"/>
    </g>
   </g>
   <g id="text_10">
    <!-- Decoder -->
    <g style="fill: #ffffff" transform="translate(126.900351 245.930136) scale(0.09 -0.09)">
     <use xlink:href="#DejaVuSans-44"/>
     <use xlink:href="#DejaVuSans-65" transform="translate(77.001953 0)"/>
     <use xlink:href="#DejaVuSans-63" transform="translate(138.525391 0)"/>
     <use xlink:href="#DejaVuSans-6f" transform="translate(193.505859 0)"/>
     <use xlink:href="#DejaVuSans-64" transform="translate(254.6875 0)"/>
     <use xlink:href="#DejaVuSans-65" transform="translate(318.164062 0)"/>
     <use xlink:href="#DejaVuSans-72" transform="translate(379.6875 0)"/>
    </g>
    <!-- L1 -->
    <g style="fill: #ffffff" transform="translate(140.467148 256.008167) scale(0.09 -0.09)">
     <use xlink:href="#DejaVuSans-4c"/>
     <use xlink:href="#DejaVuSans-31" transform="translate(55.712891 0)"/>
    </g>
   </g>
   <g id="text_11">
    <!-- Output -->
    <g style="fill: #ffffff" transform="translate(694.47077 245.930136) scale(0.09 -0.09)">
     <defs>
      <path id="DejaVuSans-4f" d="M 2522 4238 
Q 1834 4238 1429 3725 
Q 1025 3213 1025 2328 
Q 1025 1447 1429 934 
Q 1834 422 2522 422 
Q 3209 422 3611 934 
Q 4013 1447 4013 2328 
Q 4013 3213 3611 3725 
Q 3209 4238 2522 4238 
z
M 2522 4750 
Q 3503 4750 4090 4092 
Q 4678 3434 4678 2328 
Q 4678 1225 4090 567 
Q 3503 -91 2522 -91 
Q 1538 -91 948 565 
Q 359 1222 359 2328 
Q 359 3434 948 4092 
Q 1538 4750 2522 4750 
z
" transform="scale(0.015625)"/>
     </defs>
     <use xlink:href="#DejaVuSans-4f"/>
     <use xlink:href="#DejaVuSans-75" transform="translate(78.710938 0)"/>
     <use xlink:href="#DejaVuSans-74" transform="translate(142.089844 0)"/>
     <use xlink:href="#DejaVuSans-70" transform="translate(181.298828 0)"/>
     <use xlink:href="#DejaVuSans-75" transform="translate(244.775391 0)"/>
     <use xlink:href="#DejaVuSans-74" transform="translate(308.154297 0)"/>
    </g>
    <!-- EIT Image -->
    <g style="fill: #ffffff" transform="translate(687.658192 256.008167) scale(0.09 -0.09)">
     <defs>
      <path id="DejaVuSans-49" d="M 628 4666 
L 1259 4666 
L 1259 0 
L 628 0 
L 628 4666 
z
" transform="scale(0.015625)"/>
      <path id="DejaVuSans-54" d="M -19 4666 
L 3928 4666 
L 3928 4134 
L 2272 4134 
L 2272 0 
L 1638 0 
L 1638 4134 
L -19 4134 
L -19 4666 
z
" transform="scale(0.015625)"/>
      <path id="DejaVuSans-67" d="M 2906 1791 
Q 2906 2416 2648 2759 
Q 2391 3103 1925 3103 
Q 1463 3103 1205 2759 
Q 947 2416 947 1791 
Q 947 1169 1205 825 
Q 1463 481 1925 481 
Q 2391 481 2648 825 
Q 2906 1169 2906 1791 
z
M 3481 434 
Q 3481 -459 3084 -895 
Q 2688 -1331 1869 -1331 
Q 1566 -1331 1297 -1286 
Q 1028 -1241 775 -1147 
L 775 -588 
Q 1028 -725 1275 -790 
Q 1522 -856 1778 -856 
Q 2344 -856 2625 -561 
Q 2906 -266 2906 331 
L 2906 616 
Q 2728 306 2450 153 
Q 2172 0 1784 0 
Q 1141 0 747 490 
Q 353 981 353 1791 
Q 353 2603 747 3093 
Q 1141 3584 1784 3584 
Q 2172 3584 2450 3431 
Q 2728 3278 2906 2969 
L 2906 3500 
L 3481 3500 
L 3481 434 
z
" transform="scale(0.015625)"/>
     </defs>
     <use xlink:href="#DejaVuSans-45"/>
     <use xlink:href="#DejaVuSans-49" transform="translate(63.183594 0)"/>
     <use xlink:href="#DejaVuSans-54" transform="translate(92.675781 0)"/>
     <use xlink:href="#DejaVuSans-20" transform="translate(153.759766 0)"/>
     <use xlink:href="#DejaVuSans-49" transform="translate(185.546875 0)"/>
     <use xlink:href="#DejaVuSans-6d" transform="translate(215.039062 0)"/>
     <use xlink:href="#DejaVuSans-61" transform="translate(312.451172 0)"/>
     <use xlink:href="#DejaVuSans-67" transform="translate(373.730469 0)"/>
     <use xlink:href="#DejaVuSans-65" transform="translate(437.207031 0)"/>
    </g>
   </g>
   <g id="text_12">
    <!-- Attention -->
    <g style="fill: #ffffff" transform="translate(110.601097 188.526295) scale(0.09 -0.09)">
     <defs>
      <path id="DejaVuSans-41" d="M 2188 4044 
L 1331 1722 
L 3047 1722 
L 2188 4044 
z
M 1831 4666 
L 2547 4666 
L 4325 0 
L 3669 0 
L 3244 1197 
L 1141 1197 
L 716 0 
L 50 0 
L 1831 4666 
z
" transform="scale(0.015625)"/>
      <path id="DejaVuSans-69" d="M 603 3500 
L 1178 3500 
L 1178 0 
L 603 0 
L 603 3500 
z
M 603 4863 
L 1178 4863 
L 1178 4134 
L 603 4134 
L 603 4863 
z
" transform="scale(0.015625)"/>
     </defs>
     <use xlink:href="#DejaVuSans-41"/>
     <use xlink:href="#DejaVuSans-74" transform="translate(66.658203 0)"/>
     <use xlink:href="#DejaVuSans-74" transform="translate(105.867188 0)"/>
     <use xlink:href="#DejaVuSans-65" transform="translate(145.076172 0)"/>
     <use xlink:href="#DejaVuSans-6e" transform="translate(206.599609 0)"/>
     <use xlink:href="#DejaVuSans-74" transform="translate(269.978516 0)"/>
     <use xlink:href="#DejaVuSans-69" transform="translate(309.1875 0)"/>
     <use xlink:href="#DejaVuSans-6f" transform="translate(336.970703 0)"/>
     <use xlink:href="#DejaVuSans-6e" transform="translate(398.152344 0)"/>
    </g>
   </g>
   <g id="text_13">
    <!-- Attention -->
    <g style="fill: #ffffff" transform="translate(231.170397 188.526295) scale(0.09 -0.09)">
     <use xlink:href="#DejaVuSans-41"/>
     <use xlink:href="#DejaVuSans-74" transform="translate(66.658203 0)"/>
     <use xlink:href="#DejaVuSans-74" transform="translate(105.867188 0)"/>
     <use xlink:href="#DejaVuSans-65" transform="translate(145.076172 0)"/>
     <use xlink:href="#DejaVuSans-6e" transform="translate(206.599609 0)"/>
     <use xlink:href="#DejaVuSans-74" transform="translate(269.978516 0)"/>
     <use xlink:href="#DejaVuSans-69" transform="translate(309.1875 0)"/>
     <use xlink:href="#DejaVuSans-6f" transform="translate(336.970703 0)"/>
     <use xlink:href="#DejaVuSans-6e" transform="translate(398.152344 0)"/>
    </g>
   </g>
   <g id="text_14">
    <!-- Attention -->
    <g style="fill: #ffffff" transform="translate(351.739698 188.526295) scale(0.09 -0.09)">
     <use xlink:href="#DejaVuSans-41"/>
     <use xlink:href="#DejaVuSans-74" transform="translate(66.658203 0)"/>
     <use xlink:href="#DejaVuSans-74" transform="translate(105.867188 0)"/>
     <use xlink:href="#DejaVuSans-65" transform="translate(145.076172 0)"/>
     <use xlink:href="#DejaVuSans-6e" transform="translate(206.599609 0)"/>
     <use xlink:href="#DejaVuSans-74" transform="translate(269.978516 0)"/>
     <use xlink:href="#DejaVuSans-69" transform="translate(309.1875 0)"/>
     <use xlink:href="#DejaVuSans-6f" transform="translate(336.970703 0)"/>
     <use xlink:href="#DejaVuSans-6e" transform="translate(398.152344 0)"/>
    </g>
   </g>
   <g id="text_15">
    <!-- Attention -->
    <g style="fill: #ffffff" transform="translate(472.308998 188.526295) scale(0.09 -0.09)">
     <use xlink:href="#DejaVuSans-41"/>
     <use xlink:href="#DejaVuSans-74" transform="translate(66.658203 0)"/>
     <use xlink:href="#DejaVuSans-74" transform="translate(105.867188 0)"/>
     <use xlink:href="#DejaVuSans-65" transform="translate(145.076172 0)"/>
     <use xlink:href="#DejaVuSans-6e" transform="translate(206.599609 0)"/>
     <use xlink:href="#DejaVuSans-74" transform="translate(269.978516 0)"/>
     <use xlink:href="#DejaVuSans-69" transform="translate(309.1875 0)"/>
     <use xlink:href="#DejaVuSans-6f" transform="translate(336.970703 0)"/>
     <use xlink:href="#DejaVuSans-6e" transform="translate(398.152344 0)"/>
    </g>
   </g>
   <g id="text_16">
    <!-- Legend: -->
    <g style="fill: #222222" transform="translate(630.601368 77.74058) scale(0.09 -0.09)">
     <defs>
      <path id="DejaVuSans-3a" d="M 750 794 
L 1409 794 
L 1409 0 
L 750 0 
L 750 794 
z
M 750 3309 
L 1409 3309 
L 1409 2516 
L 750 2516 
L 750 3309 
z
" transform="scale(0.015625)"/>
     </defs>
     <use xlink:href="#DejaVuSans-4c"/>
     <use xlink:href="#DejaVuSans-65" transform="translate(53.962891 0)"/>
     <use xlink:href="#DejaVuSans-67" transform="translate(115.486328 0)"/>
     <use xlink:href="#DejaVuSans-65" transform="translate(178.962891 0)"/>
     <use xlink:href="#DejaVuSans-6e" transform="translate(240.486328 0)"/>
     <use xlink:href="#DejaVuSans-64" transform="translate(303.865234 0)"/>
     <use xlink:href="#DejaVuSans-3a" transform="translate(367.341797 0)"/>
    </g>
   </g>
   <g id="text_17">
    <!-- Blue: Encoder  |  Orange: Bottleneck  |  Green: Decoder  |  Red: Attention -->
    <g style="fill: #222222" transform="translate(671.519765 77.635112) scale(0.09 -0.09)">
     <defs>
      <path id="DejaVuSans-7c" d="M 1344 4891 
L 1344 -1509 
L 813 -1509 
L 813 4891 
L 1344 4891 
z
" transform="scale(0.015625)"/>
      <path id="DejaVuSans-47" d="M 3809 666 
L 3809 1919 
L 2778 1919 
L 2778 2438 
L 4434 2438 
L 4434 434 
Q 4069 175 3628 42 
Q 3188 -91 2688 -91 
Q 1594 -91 976 548 
Q 359 1188 359 2328 
Q 359 3472 976 4111 
Q 1594 4750 2688 4750 
Q 3144 4750 3555 4637 
Q 3966 4525 4313 4306 
L 4313 3634 
Q 3963 3931 3569 4081 
Q 3175 4231 2741 4231 
Q 1884 4231 1454 3753 
Q 1025 3275 1025 2328 
Q 1025 1384 1454 906 
Q 1884 428 2741 428 
Q 3075 428 3337 486 
Q 3600 544 3809 666 
z
" transform="scale(0.015625)"/>
      <path id="DejaVuSans-52" d="M 2841 2188 
Q 3044 2119 3236 1894 
Q 3428 1669 3622 1275 
L 4263 0 
L 3584 0 
L 2988 1197 
Q 2756 1666 2539 1819 
Q 2322 1972 1947 1972 
L 1259 1972 
L 1259 0 
L 628 0 
L 628 4666 
L 2053 4666 
Q 2853 4666 3247 4331 
Q 3641 3997 3641 3322 
Q 3641 2881 3436 2590 
Q 3231 2300 2841 2188 
z
M 1259 4147 
L 1259 2491 
L 2053 2491 
Q 2509 2491 2742 2702 
Q 2975 2913 2975 3322 
Q 2975 3731 2742 3939 
Q 2509 4147 2053 4147 
L 1259 4147 
z
" transform="scale(0.015625)"/>
     </defs>
     <use xlink:href="#DejaVuSans-42"/>
     <use xlink:href="#DejaVuSans-6c" transform="translate(68.603516 0)"/>
     <use xlink:href="#DejaVuSans-75" transform="translate(96.386719 0)"/>
     <use xlink:href="#DejaVuSans-65" transform="translate(159.765625 0)"/>
     <use xlink:href="#DejaVuSans-3a" transform="translate(221.289062 0)"/>
     <use xlink:href="#DejaVuSans-20" transform="translate(254.980469 0)"/>
     <use xlink:href="#DejaVuSans-45" transform="translate(286.767578 0)"/>
     <use xlink:href="#DejaVuSans-6e" transform="translate(349.951172 0)"/>
     <use xlink:href="#DejaVuSans-63" transform="translate(413.330078 0)"/>
     <use xlink:href="#DejaVuSans-6f" transform="translate(468.310547 0)"/>
     <use xlink:href="#DejaVuSans-64" transform="translate(529.492188 0)"/>
     <use xlink:href="#DejaVuSans-65" transform="translate(592.96875 0)"/>
     <use xlink:href="#DejaVuSans-72" transform="translate(654.492188 0)"/>
     <use xlink:href="#DejaVuSans-20" transform="translate(695.605469 0)"/>
     <use xlink:href="#DejaVuSans-20" transform="translate(727.392578 0)"/>
     <use xlink:href="#DejaVuSans-7c" transform="translate(759.179688 0)"/>
     <use xlink:href="#DejaVuSans-20" transform="translate(792.871094 0)"/>
     <use xlink:href="#DejaVuSans-20" transform="translate(824.658203 0)"/>
     <use xlink:href="#DejaVuSans-4f" transform="translate(856.445312 0)"/>
     <use xlink:href="#DejaVuSans-72" transform="translate(935.15625 0)"/>
     <use xlink:href="#DejaVuSans-61" transform="translate(976.269531 0)"/>
     <use xlink:href="#DejaVuSans-6e" transform="translate(1037.548828 0)"/>
     <use xlink:href="#DejaVuSans-67" transform="translate(1100.927734 0)"/>
     <use xlink:href="#DejaVuSans-65" transform="translate(1164.404297 0)"/>
     <use xlink:href="#DejaVuSans-3a" transform="translate(1225.927734 0)"/>
     <use xlink:href="#DejaVuSans-20" transform="translate(1259.619141 0)"/>
     <use xlink:href="#DejaVuSans-42" transform="translate(1291.40625 0)"/>
     <use xlink:href="#DejaVuSans-6f" transform="translate(1360.009766 0)"/>
     <use xlink:href="#DejaVuSans-74" transform="translate(1421.191406 0)"/>
     <use xlink:href="#DejaVuSans-74" transform="translate(1460.400391 0)"/>
     <use xlink:href="#DejaVuSans-6c" transform="translate(1499.609375 0)"/>
     <use xlink:href="#DejaVuSans-65" transform="translate(1527.392578 0)"/>
     <use xlink:href="#DejaVuSans-6e" transform="translate(1588.916016 0)"/>
     <use xlink:href="#DejaVuSans-65" transform="translate(1652.294922 0)"/>
     <use xlink:href="#DejaVuSans-63" transform="translate(1713.818359 0)"/>
     <use xlink:href="#DejaVuSans-6b" transform="translate(1768.798828 0)"/>
     <use xlink:href="#DejaVuSans-20" transform="translate(1826.708984 0)"/>
     <use xlink:href="#DejaVuSans-20" transform="translate(1858.496094 0)"/>
     <use xlink:href="#DejaVuSans-7c" transform="translate(1890.283203 0)"/>
     <use xlink:href="#DejaVuSans-20" transform="translate(1923.974609 0)"/>
     <use xlink:href="#DejaVuSans-20" transform="translate(1955.761719 0)"/>
     <use xlink:href="#DejaVuSans-47" transform="translate(1987.548828 0)"/>
     <use xlink:href="#DejaVuSans-72" transform="translate(2065.039062 0)"/>
     <use xlink:href="#DejaVuSans-65" transform="translate(2103.902344 0)"/>
     <use xlink:href="#DejaVuSans-65" transform="translate(2165.425781 0)"/>
     <use xlink:href="#DejaVuSans-6e" transform="translate(2226.949219 0)"/>
     <use xlink:href="#DejaVuSans-3a" transform="translate(2290.328125 0)"/>
     <use xlink:href="#DejaVuSans-20" transform="translate(2324.019531 0)"/>
     <use xlink:href="#DejaVuSans-44" transform="translate(2355.806641 0)"/>
     <use xlink:href="#DejaVuSans-65" transform="translate(2432.808594 0)"/>
     <use xlink:href="#DejaVuSans-63" transform="translate(2494.332031 0)"/>
     <use xlink:href="#DejaVuSans-6f" transform="translate(2549.3125 0)"/>
     <use xlink:href="#DejaVuSans-64" transform="translate(2610.494141 0)"/>
     <use xlink:href="#DejaVuSans-65" transform="translate(2673.970703 0)"/>
     <use xlink:href="#DejaVuSans-72" transform="translate(2735.494141 0)"/>
     <use xlink:href="#DejaVuSans-20" transform="translate(2776.607422 0)"/>
     <use xlink:href="#DejaVuSans-20" transform="translate(2808.394531 0)"/>
     <use xlink:href="#DejaVuSans-7c" transform="translate(2840.181641 0)"/>
     <use xlink:href="#DejaVuSans-20" transform="translate(2873.873047 0)"/>
     <use xlink:href="#DejaVuSans-20" transform="translate(2905.660156 0)"/>
     <use xlink:href="#DejaVuSans-52" transform="translate(2937.447266 0)"/>
     <use xlink:href="#DejaVuSans-65" transform="translate(3002.429688 0)"/>
     <use xlink:href="#DejaVuSans-64" transform="translate(3063.953125 0)"/>
     <use xlink:href="#DejaVuSans-3a" transform="translate(3127.429688 0)"/>
     <use xlink:href="#DejaVuSans-20" transform="translate(3161.121094 0)"/>
     <use xlink:href="#DejaVuSans-41" transform="translate(3192.908203 0)"/>
     <use xlink:href="#DejaVuSans-74" transform="translate(3259.566406 0)"/>
     <use xlink:href="#DejaVuSans-74" transform="translate(3298.775391 0)"/>
     <use xlink:href="#DejaVuSans-65" transform="translate(3337.984375 0)"/>
     <use xlink:href="#DejaVuSans-6e" transform="translate(3399.507812 0)"/>
     <use xlink:href="#DejaVuSans-74" transform="translate(3462.886719 0)"/>
     <use xlink:href="#DejaVuSans-69" transform="translate(3502.095703 0)"/>
     <use xlink:href="#DejaVuSans-6f" transform="translate(3529.878906 0)"/>
     <use xlink:href="#DejaVuSans-6e" transform="translate(3591.060547 0)"/>
    </g>
   </g>
  </g>
 </g>
 <defs>
  <clipPath id="p8fda36562b">
   <rect x="10.8" y="10.8" width="737.884118" height="338.4"/>
  </clipPath>
 </defs>
</svg>
